# xmcd CD database file
#
# Track frame offsets:
#	150
#	29796
#	74702
#	125593
#	152194
#	189122
#	220006
#	277849
#	303892
#
# Disc length: 4163 seconds
#
# Revision: 0
# Processed by: cddbd v1.5.1PL0 Copyright (c) Steve Scherf et al.
# Submitted via: CDex 1.51
#
DISCID=7f104109
DTITLE=Counts Jam Band - Reunion
DYEAR=1900
DGENRE=Jazz
TTITLE0=Scotland
TTITLE1=Reunion
TTITLE2=Rhapsody and Blue
TTITLE3=Pedals and Suspensions  
TTITLE4=Foreplay       
TTITLE5=Blues For Yoshihiro Hattori
TTITLE6=Tomorrow Never Knows
TTITLE7=Ballad For Guitar and Soporano
TTITLE8=Jammin' With The Count
EXTD=
EXTT0=
EXTT1=
EXTT2=
EXTT3=
EXTT4=
EXTT5=
EXTT6=
EXTT7=
EXTT8=
PLAYORDER=
